# xmcd
#
# Track frame offsets:
#	150
#	19656
#	36378
#	53873
#	83235
#	98987
#	114155
#	136273
#	155371
#	174370
#	188685
#	196604
#	220020
#	235609
#	255613
#	272302
#
# Disc length: 4120 seconds
#
# Revision: 2
# Processed by: cddbd v1.5.2PL0 Copyright (c) Steve Scherf et al.
# Submitted via: EasyCDDAExtractor 16.0.8.2
#
DISCID=c2101610
DTITLE=Άνευ ερμηνευτού - Jazz collection 10-Garner Erroll
DYEAR=2010
DGENRE=Ξένη jazz
TTITLE0=I'll remember April
TTITLE1=Teach me tonight
TTITLE2=Mambo carmel
TTITLE3=Autumn leaves
TTITLE4=It's alright with me
TTITLE5=Red top
TTITLE6=April in Paris
TTITLE7=They can't take away from me
TTITLE8=How could you do a thing like that to me
TTITLE9=Ehere or when
TTITLE10=Erroll's theme
TTITLE11=Humoresque
TTITLE12=How high the moon
TTITLE13=Fancy
TTITLE14=Groovy day
TTITLE15=The man l love
EXTD=
EXTT0=
EXTT1=
EXTT2=
EXTT3=
EXTT4=
EXTT5=
EXTT6=
EXTT7=
EXTT8=
EXTT9=
EXTT10=
EXTT11=
EXTT12=
EXTT13=
EXTT14=
EXTT15=
PLAYORDER=
